<svg xmlns="http://www.w3.org/2000/svg" version="1.0" width="32.000000pt" height="32.000000pt" viewBox="0 0 32.000000 32.000000" preserveAspectRatio="xMidYMid meet">

<g transform="translate(0.000000,32.000000) scale(0.100000,-0.100000)" fill="#dadada" stroke="none">
<path d="M44 244 c4 -9 -4 -28 -19 -46 -14 -16 -25 -34 -25 -40 0 -19 69 -76 106 -88 20 -7 54 -10 75 -7 26 3 42 0 50 -9 14 -17 29 -18 29 -1 0 17 -192 207 -209 207 -8 0 -11 -6 -7 -16z m76 -94 c3 -15 15 -27 30 -30 30 -7 39 -30 10 -30 -11 0 -32 11 -45 25 -14 13 -25 34 -25 45 0 29 23 20 30 -10z" fill="#dadada"/>
<path d="M115 251 c-8 -13 16 -26 42 -23 32 5 76 -42 70 -73 -5 -28 24 -61 47 -52 8 3 23 18 32 32 16 25 16 27 -3 53 -39 52 -167 95 -188 63z" fill="#dadada"/>
<path d="M175 180 c20 -22 31 -20 22 5 -4 8 -14 15 -23 15 -16 0 -16 -2 1 -20z" fill="#dadada"/>
</g>
</svg>