<svg width="18" height="12" viewBox="0 0 18 12" fill="none" xmlns="http://www.w3.org/2000/svg">
<path d="M10.4253 6.82018C10.0141 7.2304 9.46609 7.45519 8.8838 7.45342C8.30011 7.45152 7.75003 7.22242 7.33494 6.80828L0.620895 0.109484C0.765772 0.0393637 0.928535 0 1.10043 0H16.6599C16.835 0 17.0004 0.0408826 17.1475 0.113408L10.4253 6.82018Z" fill="#C4C4C4"/>
<path d="M12.2638 6.00616L17.6547 0.627625C17.7224 0.770144 17.7605 0.929624 17.7605 1.09796V10.9023C17.7605 11.0738 17.721 11.2361 17.6508 11.3808L12.2638 6.00616Z" fill="#C4C4C4"/>
<path d="M6.01398 6.51035L6.82386 7.31838C7.37483 7.86808 8.10555 8.17223 8.88157 8.17476C8.88486 8.17476 8.88816 8.17476 8.89146 8.17476C9.66469 8.17476 10.3906 7.87504 10.9367 7.33028L11.7526 6.51629L17.1396 11.891C16.9948 11.9611 16.832 12.0005 16.6601 12.0005H1.10061C0.928713 12.0005 0.766075 11.9611 0.621073 11.891L6.01398 6.51047V6.51035Z" fill="#C4C4C4"/>
<path d="M0.109782 0.619629L5.50269 6.00018L0.109782 11.3807C0.0395007 11.2362 4.62532e-05 11.0738 4.62532e-05 10.9023V1.09807C4.62532e-05 0.926565 0.0395007 0.7643 0.109782 0.619629Z" fill="#C4C4C4"/>
</svg>
