<svg width="11" height="16" viewBox="0 0 11 16" fill="none" xmlns="http://www.w3.org/2000/svg">
<path d="M10.9797 7.75816C10.9773 7.7432 10.9745 7.72828 10.9714 7.71344C10.9684 7.69861 10.965 7.68382 10.9614 7.66907C10.9578 7.65432 10.9539 7.63971 10.9497 7.62513C10.9456 7.61056 10.9411 7.59611 10.9364 7.58171C10.9317 7.56731 10.9267 7.55304 10.9214 7.53885C10.9161 7.52467 10.9106 7.51061 10.9048 7.49664C10.8989 7.48272 10.8929 7.46888 10.8866 7.45517C10.8802 7.44146 10.8736 7.42788 10.8667 7.41447C10.8599 7.40102 10.8528 7.38775 10.8454 7.3746C10.8381 7.36145 10.8304 7.34848 10.8226 7.33564C10.8147 7.32279 10.8066 7.31012 10.7983 7.29762C10.79 7.28512 10.7814 7.2728 10.7726 7.26064C10.7638 7.24849 10.7547 7.23651 10.7454 7.22475C10.7361 7.21294 10.7267 7.20135 10.7169 7.18998C10.7072 7.17856 10.6973 7.16736 10.6872 7.15638C10.677 7.14539 10.6667 7.13458 10.6561 7.12403C10.3398 6.80184 10.0194 6.788 9.60112 6.79064L9.59957 4.90337C9.59957 4.534 9.61301 4.15844 9.57775 3.79058C9.49827 2.96201 9.15408 2.15649 8.63638 1.51976C8.53902 1.40006 8.42553 1.28986 8.31744 1.18019C7.57512 0.427039 6.48899 -0.0104491 5.4521 0.00018965C5.3856 0.000362639 5.31918 0.00226551 5.2528 0.00585502C5.21905 0.00797413 5.18534 0.0105257 5.15167 0.0135098C5.118 0.0164938 5.08433 0.0199103 5.05074 0.0237161C5.01716 0.0275651 4.98357 0.0318033 4.95007 0.036474C4.91657 0.0411447 4.88311 0.0462478 4.84973 0.0517402C4.81635 0.0572758 4.78302 0.0632007 4.74977 0.069558C4.71652 0.0759153 4.68335 0.0826619 4.65031 0.0898842C4.61723 0.0970632 4.58423 0.104675 4.55131 0.112675C4.5184 0.120676 4.48561 0.129109 4.4529 0.137975C4.42019 0.146797 4.38761 0.156052 4.35511 0.16574C4.32262 0.175427 4.29025 0.18546 4.258 0.195969C4.22576 0.206435 4.19364 0.217333 4.16164 0.228621C4.12965 0.239908 4.09778 0.251585 4.06608 0.263694C4.03438 0.275804 4.0028 0.288259 3.97139 0.301146C3.93998 0.314034 3.9087 0.327311 3.87759 0.340977C3.84647 0.354643 3.81552 0.368698 3.78478 0.383143C3.754 0.397587 3.72339 0.412421 3.69299 0.427644C3.66254 0.442867 3.63231 0.458479 3.60228 0.474437C3.57221 0.490439 3.54236 0.506786 3.51271 0.523523C3.48301 0.54026 3.45358 0.557342 3.4243 0.574857C3.39503 0.592329 3.36597 0.61019 3.33711 0.628397C3.30826 0.646604 3.27966 0.665157 3.25122 0.684099C3.22283 0.703042 3.19465 0.722287 3.16667 0.741964C3.13874 0.761598 3.11102 0.781578 3.0835 0.801905C3.05603 0.822231 3.02877 0.842903 3.0018 0.863921C2.97479 0.884939 2.94807 0.906303 2.92156 0.92797C2.89505 0.94968 2.86884 0.971693 2.84287 0.994052C2.81691 1.01641 2.7912 1.03907 2.76578 1.06208C2.74036 1.08509 2.71519 1.1084 2.69031 1.13201C2.66544 1.15567 2.64082 1.17958 2.61653 1.20384C2.5922 1.2281 2.56816 1.25267 2.54446 1.27754C2.52071 1.3024 2.49726 1.32753 2.47414 1.353C2.45098 1.37843 2.42816 1.40416 2.40563 1.4302C2.38771 1.451 2.36999 1.47198 2.35245 1.49312C2.33494 1.51427 2.3176 1.53564 2.30052 1.55713C2.28339 1.57862 2.26651 1.60033 2.2498 1.62222C2.23314 1.64406 2.21664 1.66611 2.20039 1.68834C2.18414 1.71053 2.1681 1.73289 2.15227 1.75546C2.13644 1.77799 2.12082 1.8007 2.10545 1.82357C2.09008 1.84645 2.07492 1.86946 2.05997 1.89264C2.04502 1.91582 2.03032 1.93913 2.01583 1.96261C2.00134 1.9861 1.98711 2.00971 1.97308 2.0335C1.95905 2.05728 1.94527 2.0812 1.9317 2.10524C1.91813 2.12933 1.90482 2.15351 1.89171 2.17785C1.87864 2.20216 1.86579 2.22664 1.85314 2.25125C1.84054 2.27585 1.82818 2.30059 1.81604 2.32546C1.80389 2.35032 1.792 2.37528 1.78036 2.4004C1.76872 2.42549 1.75732 2.45074 1.74614 2.47609C1.73496 2.50143 1.72407 2.52686 1.71339 2.55246C1.70272 2.57802 1.69233 2.60371 1.68215 2.62948C1.67198 2.65526 1.66209 2.68116 1.65242 2.70716C1.64275 2.73315 1.63337 2.75923 1.6242 2.78539C1.61507 2.81155 1.60615 2.83785 1.59748 2.86423C1.58881 2.89061 1.58043 2.91703 1.57231 2.94359C1.56419 2.97014 1.55631 2.99674 1.54869 3.02347C1.54107 3.05015 1.5337 3.07696 1.52662 3.10382C1.5195 3.13068 1.51268 3.15757 1.50614 3.1846C1.49957 3.21159 1.49324 3.23866 1.48721 3.26578C1.48114 3.2929 1.47536 3.3201 1.46988 3.34734C1.46435 3.37459 1.45911 3.40188 1.45413 3.42925C1.44915 3.45663 1.44442 3.484 1.43998 3.51147C1.43554 3.53893 1.43131 3.56643 1.42741 3.59394C1.42348 3.62149 1.41983 3.64908 1.41644 3.67667C1.41305 3.7043 1.40995 3.73194 1.4071 3.75962C1.40425 3.7873 1.40166 3.81502 1.39935 3.84274C1.36966 4.22526 1.38868 4.64368 1.38901 5.031C1.38956 5.61565 1.38348 6.2007 1.39052 6.78527C0.966299 6.78389 0.639361 6.77723 0.313805 7.11066C0.000476567 7.43147 -0.000528485 7.77014 0.000141556 8.19201L0.00478997 12.9318C0.00227731 13.3848 0.00215168 13.8378 0.00432931 14.2908C0.00495748 14.5255 -0.0140968 14.7806 0.0230905 15.0121C0.0612409 15.2498 0.179378 15.4845 0.343621 15.6551C0.654688 15.9783 0.956123 16.0008 1.37239 16L5.79327 15.9986L8.74841 15.9978L9.5159 15.9971C9.69442 15.997 9.88605 16.0094 10.0618 15.975C10.2804 15.9323 10.4817 15.8136 10.6381 15.6526C10.9861 15.2944 10.9997 14.9532 10.9984 14.4774L10.9948 9.49233L10.9953 8.38892C10.9955 8.18497 11.0128 7.95874 10.9797 7.75803L10.9797 7.75816ZM6.80767 10.2363C6.77124 10.6814 6.55105 11.002 6.22876 11.2832C6.26436 11.5859 6.28349 11.8936 6.30288 12.198C6.33249 12.6441 6.35184 13.0907 6.36088 13.5379C6.3634 13.6819 6.36897 13.8296 6.26209 13.9391C6.13232 14.072 5.79554 14.0296 5.62158 14.0282C5.46533 14.0278 5.30904 14.0286 5.1528 14.0306C5.07457 14.0313 4.99119 14.0378 4.91359 14.0288C4.81443 14.0172 4.73432 13.9752 4.67309 13.8924C4.6653 13.8819 4.65818 13.871 4.65173 13.8596C4.64529 13.8483 4.63959 13.8365 4.63461 13.8243C4.62962 13.8122 4.62539 13.7998 4.62196 13.7871C4.61848 13.7744 4.61585 13.7616 4.61396 13.7485C4.59235 13.5989 4.61124 13.3304 4.61488 13.1691C4.62908 12.5418 4.65391 11.9071 4.72866 11.284C4.43883 11.0331 4.21667 10.725 4.16838 10.3282C4.12387 9.96221 4.21462 9.59093 4.43653 9.30074C4.67334 8.99101 4.99145 8.81153 5.36939 8.76504C5.44134 8.75622 5.52086 8.75756 5.59306 8.76327C5.60395 8.76413 5.61483 8.76517 5.62572 8.76629C5.63661 8.76746 5.64746 8.76876 5.6583 8.77014C5.66915 8.77157 5.68 8.77313 5.6908 8.77486C5.7016 8.77654 5.71241 8.7784 5.72317 8.78039C5.73393 8.78238 5.74465 8.78446 5.75538 8.78671C5.7661 8.78895 5.77677 8.79133 5.78745 8.79384C5.79809 8.79635 5.80873 8.79903 5.81932 8.8018C5.82992 8.80457 5.84047 8.80751 5.85102 8.81054C5.86154 8.81361 5.87205 8.81676 5.88252 8.82009C5.89294 8.82342 5.90337 8.82684 5.91376 8.83043C5.92414 8.83402 5.93444 8.83774 5.94475 8.84154C5.95505 8.84535 5.96527 8.84937 5.97544 8.85344C5.98562 8.85754 5.99575 8.86178 6.00585 8.86611C6.01594 8.87048 6.02599 8.87493 6.03595 8.87956C6.04592 8.88418 6.05585 8.8889 6.06573 8.89379C6.07561 8.89867 6.08541 8.90365 6.09517 8.90875C6.10493 8.91385 6.1146 8.91909 6.12423 8.92445C6.13386 8.92981 6.14341 8.93526 6.15292 8.94088C6.16243 8.94646 6.17185 8.95221 6.18119 8.95801C6.19057 8.96385 6.19986 8.96981 6.20908 8.97587C6.21829 8.98192 6.22746 8.98811 6.23651 8.99442C6.24559 9.00074 6.2546 9.00714 6.26352 9.01367C6.27244 9.0202 6.28127 9.02681 6.29007 9.0336C6.29882 9.04035 6.30753 9.04723 6.31612 9.05419C6.3247 9.06115 6.33324 9.06824 6.3417 9.07542C6.35012 9.0826 6.3585 9.08991 6.36675 9.09731C6.375 9.1047 6.38316 9.11218 6.39124 9.1198C6.39933 9.12741 6.40733 9.13511 6.41524 9.14289C6.42316 9.15067 6.43094 9.15859 6.43865 9.16659C6.44636 9.17459 6.45398 9.18272 6.46151 9.19089C6.46901 9.19907 6.47647 9.20737 6.48379 9.21576C6.49112 9.22415 6.49837 9.23263 6.50549 9.24119C6.73426 9.51667 6.83728 9.87632 6.8078 10.2364L6.80767 10.2363ZM8.17276 6.79297C7.32294 6.80409 6.47148 6.78821 5.62153 6.78739L2.81477 6.78925C2.81126 6.22812 2.81134 5.66703 2.81498 5.1059C2.81595 4.76931 2.7984 4.42636 2.81561 4.09059C2.84924 3.43552 3.07798 2.86064 3.50261 2.37195C3.98848 1.81285 4.65274 1.49853 5.37571 1.45883C5.3936 1.4577 5.41144 1.45701 5.42932 1.45675C6.18554 1.44503 6.85567 1.74495 7.3953 2.28476C7.81906 2.70867 8.09252 3.30851 8.15278 3.9131C8.18867 4.27313 8.1687 4.68243 8.16907 5.0473C8.16966 5.62932 8.16417 6.21095 8.17272 6.79297H8.17276Z" fill="#C4C4C4"/>
</svg>
